# xmcd
#
# Track frame offsets: 
#        182
#        10100
#        20850
#        30967
#        43297
#        54285
#        65017
#        76172
#        88907
#        100512
#        111770
#        121892
#        132560
#        142802
#        155255
#        166520
#        178447
#        190370
#        202197
#        212945
#
# Disc length: 3003 seconds
#
# Revision: 1
# Processed by: cddbd v1.5.2PL0 Copyright (c) Steve Scherf et al.
# Submitted via: ExactAudioCopyFreeDBPlugin 1.0
#
DISCID=150bb914
DTITLE=The Drifters - Greatest Hits and More, 1953-1965
DYEAR=1988
DGENRE=Rhythm and Blues
TTITLE0=There Goes My Baby
TTITLE1=Oh My Love
TTITLE2=Baltimore
TTITLE3=Hey Seqorita
TTITLE4=Dance with Me
TTITLE5=(If You Cry) True Love, True Love
TTITLE6=This Magic Moment
TTITLE7=Lonely Winds
TTITLE8=Nobody But Me
TTITLE9=Save the Last Dance for Me
TTITLE10=I Count the Tears
TTITLE11=Sometimes I Wonder
TTITLE12=Please Stay
TTITLE13=Room Full of Tears
TTITLE14=Sweets for My Sweet
TTITLE15=Some Kind of Wonderful
TTITLE16=Loneliness or Happiness
TTITLE17=Mexican Divorce
TTITLE18=Somebody New Dancing with You
TTITLE19=Jackpot
EXTD=
EXTT0=
EXTT1=
EXTT2=
EXTT3=
EXTT4=
EXTT5=
EXTT6=
EXTT7=
EXTT8=
EXTT9=
EXTT10=
EXTT11=
EXTT12=
EXTT13=
EXTT14=
EXTT15=
EXTT16=
EXTT17=
EXTT18=
EXTT19=
PLAYORDER=
